<svg width="44" height="24" viewBox="0 0 44 24" fill="none" xmlns="http://www.w3.org/2000/svg">
<g clip-path="url(#clip0_5579_8348)">
<rect x="9" y="3" width="26" height="18" rx="9" stroke="url(#paint0_radial_5579_8348)" stroke-width="6"/>
<mask id="path-2-inside-1_5579_8348" fill="white">
<path d="M28 12C28 10.3431 29.3431 9 31 9H44V15H31C29.3431 15 28 13.6569 28 12V12Z"/>
</mask>
<path d="M44 9H50V3H44V9ZM44 15V21H50V15H44ZM28 12M28 12M31 9V15H44V9V3H31V9ZM44 9H38V15H44H50V9H44ZM44 15V9H31V15V21H44V15ZM28 12M31 15V9C32.6569 9 34 10.3431 34 12H28H22C22 16.9706 26.0294 21 31 21V15ZM31 9V3C26.0294 3 22 7.02944 22 12H28H34C34 13.6569 32.6569 15 31 15V9Z" fill="url(#paint1_linear_5579_8348)" mask="url(#path-2-inside-1_5579_8348)"/>
<path d="M44 9H50V3H44V9ZM44 15V21H50V15H44ZM28 12M28 12M31 9V15H44V9V3H31V9ZM44 9H38V15H44H50V9H44ZM44 15V9H31V15V21H44V15ZM28 12M31 15V9C32.6569 9 34 10.3431 34 12H28H22C22 16.9706 26.0294 21 31 21V15ZM31 9V3C26.0294 3 22 7.02944 22 12H28H34C34 13.6569 32.6569 15 31 15V9Z" fill="black" fill-opacity="0.12" style="mix-blend-mode:color-burn" mask="url(#path-2-inside-1_5579_8348)"/>
<mask id="path-4-inside-2_5579_8348" fill="white">
<path d="M0 9H13C14.6569 9 16 10.3431 16 12V12C16 13.6569 14.6569 15 13 15H0V9Z"/>
</mask>
<path d="M0 9V3H-6V9H0ZM0 15H-6V21H0V15ZM16 12M16 12M0 9V15H13V9V3H0V9ZM16 12M13 15V9H0V15V21H13V15ZM0 15H6V9H0H-6V15H0ZM16 12H10C10 10.3431 11.3431 9 13 9V15V21C17.9706 21 22 16.9706 22 12H16ZM13 9V15C11.3431 15 10 13.6569 10 12H16H22C22 7.02944 17.9706 3 13 3V9Z" fill="url(#paint2_linear_5579_8348)" mask="url(#path-4-inside-2_5579_8348)"/>
<path d="M0 9V3H-6V9H0ZM0 15H-6V21H0V15ZM16 12M16 12M0 9V15H13V9V3H0V9ZM16 12M13 15V9H0V15V21H13V15ZM0 15H6V9H0H-6V15H0ZM16 12H10C10 10.3431 11.3431 9 13 9V15V21C17.9706 21 22 16.9706 22 12H16ZM13 9V15C11.3431 15 10 13.6569 10 12H16H22C22 7.02944 17.9706 3 13 3V9Z" fill="black" fill-opacity="0.12" style="mix-blend-mode:color-burn" mask="url(#path-4-inside-2_5579_8348)"/>
</g>
<defs>
<radialGradient id="paint0_radial_5579_8348" cx="0" cy="0" r="1" gradientUnits="userSpaceOnUse" gradientTransform="translate(22 12) rotate(90) scale(12 16)">
<stop offset="0.465" stop-color="#FEA900"/>
<stop offset="0.82" stop-color="#FFD600"/>
<stop offset="1" stop-color="#FEA900"/>
</radialGradient>
<linearGradient id="paint1_linear_5579_8348" x1="36" y1="9" x2="36" y2="15" gradientUnits="userSpaceOnUse">
<stop stop-color="#FE9D00"/>
<stop offset="0.475" stop-color="#FFD600"/>
<stop offset="1" stop-color="#FE9D00"/>
</linearGradient>
<linearGradient id="paint2_linear_5579_8348" x1="8" y1="9" x2="8" y2="15" gradientUnits="userSpaceOnUse">
<stop stop-color="#FE9D00"/>
<stop offset="0.475" stop-color="#FFD600"/>
<stop offset="1" stop-color="#FE9D00"/>
</linearGradient>
<clipPath id="clip0_5579_8348">
<rect width="44" height="24" fill="white"/>
</clipPath>
</defs>
</svg>
