<svg width="134" height="40" viewBox="0 0 134 40" fill="none" xmlns="http://www.w3.org/2000/svg">
<g clip-path="url(#clip0_3276_10929)">
<path d="M45.8984 37.2165C44.1918 37.2165 42.7097 36.9263 41.4522 36.3459C40.1947 35.7655 39.2216 34.9407 38.533 33.8715C37.8443 32.7717 37.5 31.504 37.5 30.0682C37.5 27.9603 38.2036 26.2344 39.6108 24.8902C41.0181 23.5155 43.1289 22.5838 45.9434 22.095L53.9376 20.7662V25.3485L47.0661 26.5398C45.8984 26.7537 45.0302 27.1355 44.4613 27.6854C43.8924 28.2353 43.608 28.9532 43.608 29.8391C43.608 30.6944 43.9223 31.3818 44.5511 31.9011C45.1799 32.3899 45.9883 32.6343 46.9763 32.6343C48.174 32.6343 49.2518 32.3746 50.2099 31.8553C51.1681 31.3054 51.9016 30.557 52.4106 29.61C52.9495 28.663 53.219 27.6243 53.219 26.494V20.0788C53.219 19.0096 52.7998 18.1237 51.9615 17.4211C51.1531 16.688 50.0752 16.3214 48.7279 16.3214C47.4703 16.3214 46.3625 16.6574 45.4044 17.3295C44.4463 18.0015 43.7277 18.918 43.2487 20.0788L38.4431 17.6961C39.1617 15.741 40.4791 14.1677 42.3953 12.9763C44.3116 11.7849 46.4973 11.1892 48.9524 11.1892C50.9285 11.1892 52.6801 11.5711 54.2071 12.3348C55.764 13.068 56.9616 14.1066 57.8 15.4508C58.6683 16.7949 59.1024 18.3376 59.1024 20.0788V36.6667H53.5334V32.4051L54.7909 32.3135C53.8328 33.9326 52.6052 35.1545 51.1082 35.9793C49.6411 36.8041 47.9045 37.2165 45.8984 37.2165Z" fill="#C8024F"/>
<path d="M64.5402 11.7391H70.0643V17.2837L69.6152 16.4589C70.1541 14.687 71.0075 13.4193 72.1752 12.6556C73.3429 11.8613 74.8399 11.4642 76.6663 11.4642H78.1035V16.7796H75.9926C74.286 16.7796 72.9237 17.3142 71.9057 18.3834C70.9176 19.4526 70.4236 20.9189 70.4236 22.7824V36.6667H64.5402V11.7391Z" fill="#C8024F"/>
<path d="M81.3381 11.7391H87.2215V36.6667H81.3381V11.7391ZM84.2574 8.30242C83.2095 8.30242 82.3861 7.99694 81.7873 7.38597C81.1884 6.775 80.889 5.93492 80.889 4.86572C80.889 3.76598 81.1884 2.91062 81.7873 2.29965C82.3861 1.68868 83.2095 1.3832 84.2574 1.3832C85.3353 1.3832 86.1736 1.68868 86.7724 2.29965C87.3712 2.91062 87.6707 3.76598 87.6707 4.86572C87.6707 5.96547 87.3712 6.82082 86.7724 7.43179C86.1736 8.01221 85.3353 8.30242 84.2574 8.30242Z" fill="#C8024F"/>
<path d="M92.6537 11.7391H98.1778V16.6422L97.7287 15.7715C98.2976 14.2746 99.2108 13.1444 100.468 12.3806C101.756 11.5864 103.298 11.1893 105.094 11.1893C106.861 11.1893 108.448 11.5864 109.855 12.3806C111.262 13.1749 112.355 14.2899 113.133 15.7257C113.912 17.1615 114.301 18.7958 114.301 20.6287V36.6667H108.418V22.0492C108.418 20.98 108.208 20.0483 107.789 19.254C107.37 18.4292 106.786 17.803 106.037 17.3753C105.289 16.9171 104.435 16.688 103.477 16.688C102.01 16.688 100.813 17.1767 99.8845 18.1543C98.9862 19.1318 98.5371 20.4302 98.5371 22.0492V36.6667H92.6537V11.7391Z" fill="#C8024F"/>
<path d="M130.414 36.9416C127.66 36.9416 125.519 36.1779 123.992 34.6505C122.495 33.0925 121.746 30.9083 121.746 28.0978V17.1004H117.524V11.7391H117.974C119.171 11.7391 120.099 11.4184 120.758 10.7768C121.417 10.1353 121.746 9.2036 121.746 7.98166V5.27812H127.63V11.7391H133.244V17.1004H127.63V27.7771C127.63 29.0601 127.959 30.0376 128.618 30.7097C129.276 31.3512 130.324 31.672 131.761 31.672C132.24 31.672 132.764 31.6262 133.333 31.5345V36.7125C132.465 36.8652 131.492 36.9416 130.414 36.9416Z" fill="#C8024F"/>
<path fill-rule="evenodd" clip-rule="evenodd" d="M16.6453 36.6667C13.5359 36.6667 10.7117 35.9442 8.17287 34.4993C5.634 33.0256 3.63714 31.0172 2.18229 28.4742C0.727428 25.9312 0 23.0993 0 19.9783C0 16.8285 0.727428 13.9965 2.18229 11.4824C3.63714 8.93946 5.634 6.94552 8.17287 5.50065C10.7117 4.05577 13.5359 3.33333 16.6453 3.33333C19.7547 3.33333 22.5788 4.05577 25.1177 5.50065C27.6565 6.94552 29.6534 8.93946 31.1083 11.4824C32.5916 14.0254 33.3333 16.8574 33.3333 19.9783C33.3333 23.0993 32.6059 25.9312 31.1511 28.4742C30.6401 29.3673 30.0606 30.1944 29.4124 30.9556L30.2403 36.6624L24.9932 34.5695C22.4866 35.9676 19.704 36.6667 16.6453 36.6667ZM16.6453 31.2917C18.6707 31.2917 20.5106 30.8005 22.1652 29.8179C23.8197 28.8354 25.1177 27.4917 26.0591 25.7867C27.0004 24.0529 27.4711 22.1167 27.4711 19.9783C27.4711 17.8399 27.0004 15.9182 26.0591 14.2133C25.1177 12.4794 23.8197 11.1357 22.1652 10.182C20.5392 9.19953 18.6992 8.70827 16.6453 8.70827C14.5914 8.70827 12.7371 9.19953 11.0826 10.182C9.45657 11.1357 8.17287 12.4794 7.23149 14.2133C6.29012 15.9182 5.81943 17.8399 5.81943 19.9783C5.81943 22.1167 6.29012 24.0529 7.23149 25.7867C7.40149 26.0946 7.5831 26.3907 7.77635 26.675L6.91578 31.3466L11.16 29.8384C12.8056 30.8073 14.634 31.2917 16.6453 31.2917Z" fill="#C8024F"/>
</g>
<defs>
<clipPath id="clip0_3276_10929">
<rect width="133.333" height="40" fill="white"/>
</clipPath>
</defs>
</svg>
