<svg width="350" height="168" viewBox="0 0 350 168" fill="none" xmlns="http://www.w3.org/2000/svg">
<path d="M128.922 25.2598C132.474 25.2598 135.873 25.6744 139.12 26.5039C142.395 27.3334 145.294 28.6193 147.819 30.3613C150.372 32.1034 152.385 34.3426 153.855 37.0801C155.326 39.7899 156.062 43.039 156.062 46.8271V87.7969C156.062 88.9013 155.166 89.7967 154.062 89.7969H141.245C140.141 89.7969 139.245 88.9014 139.245 87.7969V81.2734C139.245 81.102 139.106 80.9629 138.935 80.9629C138.819 80.963 138.713 81.0275 138.658 81.1299C137.641 83.0518 136.297 84.7525 134.625 86.2305C132.905 87.7236 130.837 88.8987 128.423 89.7559C126.009 90.5854 123.22 91 120.057 91C115.978 91 112.342 90.2948 109.151 88.8848C105.96 87.4469 103.434 85.3317 101.575 82.5391C99.7438 79.7187 98.8282 76.2068 98.8281 72.0039C98.8281 68.4646 99.48 65.4916 100.784 63.0859C102.088 60.6803 103.865 58.7448 106.112 57.2793C108.36 55.8138 110.913 54.7075 113.771 53.9609C116.657 53.2144 119.682 52.6889 122.845 52.3848C126.563 51.9977 129.56 51.6385 131.836 51.3066C134.111 50.9472 135.762 50.4217 136.789 49.7305C137.816 49.0392 138.329 48.016 138.329 46.6611V46.4121C138.329 43.7855 137.497 41.7532 135.832 40.3154C134.195 38.8776 131.864 38.1582 128.839 38.1582C125.648 38.1582 123.109 38.8642 121.222 40.2744C119.811 41.3081 118.757 42.5429 118.06 43.9785C117.645 44.8328 116.795 45.4448 115.849 45.3682L103.35 44.3564C102.145 44.259 101.295 43.1201 101.655 41.9668C102.578 39.0161 104.022 36.4058 105.987 34.1357C108.429 31.2877 111.579 29.1028 115.437 27.582C119.321 26.0337 123.816 25.2598 128.922 25.2598ZM335.106 10.8252C336.211 10.8252 337.106 11.7208 337.106 12.8252V26.0889H347.136C348.24 26.0889 349.136 26.9843 349.136 28.0889V37.3613C349.136 38.4659 348.24 39.3613 347.136 39.3613H337.106V70.2197C337.106 71.8511 337.356 73.1236 337.855 74.0361C338.355 74.9208 339.049 75.5429 339.937 75.9023C340.852 76.2618 341.907 76.4414 343.101 76.4414C343.933 76.4414 344.765 76.3726 345.598 76.2344C346.662 76.0223 347.692 76.7082 347.917 77.7695L349.923 87.2266C350.137 88.2368 349.546 89.2423 348.545 89.4941C347.958 89.6418 347.294 89.7977 346.555 89.9629C344.945 90.3499 342.989 90.585 340.687 90.668C336.413 90.8339 332.666 90.2674 329.447 88.9678C326.256 87.6682 323.773 85.6494 321.997 82.9121C320.221 80.1747 319.346 76.7182 319.374 72.543V39.3613H312.634C311.529 39.3613 310.634 38.4659 310.634 37.3613V28.0889C310.634 26.9843 311.529 26.0889 312.634 26.0889H319.374V12.8252C319.374 11.7209 320.27 10.8255 321.374 10.8252H335.106ZM45.1973 0C53.6401 0 61.3084 1.96163 68.2021 5.88477C75.096 9.80807 80.5183 15.2229 84.4688 22.1279C88.4965 29.0328 90.5107 36.7221 90.5107 45.1963C90.5107 53.6706 88.5354 61.3606 84.585 68.2656C83.5363 70.0987 82.3801 71.8288 81.1182 73.457C80.7772 73.8971 80.6213 74.4549 80.7012 75.0059L82.5938 88.0479C82.8148 89.5715 81.3031 90.7638 79.873 90.1934L68.1094 85.5C67.5603 85.281 66.9435 85.3181 66.417 85.5869C59.9914 88.8683 52.9186 90.5107 45.1973 90.5107C36.7544 90.5107 29.0861 88.5491 22.1924 84.626C15.2986 80.6242 9.87617 75.1706 5.92578 68.2656C1.97539 61.3606 0 53.6706 0 45.1963C3.64609e-05 36.6437 1.97553 28.9544 5.92578 22.1279C9.87618 15.2229 15.2986 9.80807 22.1924 5.88477C29.0861 1.96162 36.7544 1.25428e-05 45.1973 0ZM201.158 25.1768C202.046 25.1768 203.004 25.2322 204.03 25.3428C204.441 25.3871 204.833 25.4375 205.204 25.4951C206.111 25.6361 206.736 26.4432 206.736 27.3613V38.791C206.736 40.1299 205.433 41.1308 204.109 40.9297C203.846 40.8896 203.569 40.8514 203.281 40.8135C201.811 40.6199 200.465 40.5225 199.244 40.5225C196.636 40.5225 194.304 41.0899 192.251 42.2236C190.225 43.3297 188.616 44.8783 187.423 46.8691C186.257 48.86 185.675 51.1548 185.675 53.7539V87.7969C185.675 88.9013 184.779 89.7967 183.675 89.7969H169.942C168.838 89.7968 167.942 88.9014 167.942 87.7969V28.0889C167.942 26.9844 168.838 26.089 169.942 26.0889H183.134C184.238 26.0891 185.134 26.9844 185.134 28.0889V36.8232C185.134 37.0337 185.304 37.2051 185.515 37.2051C185.683 37.205 185.832 37.093 185.882 36.9316C187.056 33.1131 188.985 30.2179 191.668 28.2461C194.415 26.2 197.579 25.1768 201.158 25.1768ZM229.761 26.0889C230.865 26.089 231.761 26.9844 231.761 28.0889V87.7969C231.761 88.9013 230.865 89.7967 229.761 89.7969H216.028C214.924 89.7968 214.028 88.9014 214.028 87.7969V28.0889C214.028 26.9844 214.924 26.089 216.028 26.0889H229.761ZM280.968 25.2598C285.408 25.2598 289.279 26.2275 292.581 28.1631C295.883 30.0987 298.451 32.8634 300.282 36.458C302.114 40.0249 303.029 44.2831 303.029 49.2324V87.7969C303.029 88.9013 302.134 89.7967 301.029 89.7969H287.297C286.192 89.7968 285.297 88.9014 285.297 87.7969V52.3848C285.325 48.4862 284.325 45.4451 282.3 43.2607C280.274 41.0486 277.486 39.9424 273.934 39.9424C271.547 39.9424 269.438 40.4535 267.606 41.4766C265.803 42.4996 264.388 43.993 263.361 45.9561C262.362 47.8916 261.849 50.2284 261.821 52.9658V87.7969C261.821 88.9014 260.926 89.7968 259.821 89.7969H246.089C244.984 89.7967 244.089 88.9013 244.089 87.7969V28.0889C244.089 26.9844 244.984 26.0891 246.089 26.0889H258.988C260.093 26.0889 260.988 26.9843 260.988 28.0889V36.8857C260.988 37.1306 261.188 37.3291 261.433 37.3291C261.616 37.329 261.78 37.2147 261.849 37.0439C263.275 33.4731 265.611 30.6373 268.855 28.5361C272.185 26.3518 276.223 25.2598 280.968 25.2598ZM138.454 62.7695C138.454 61.6905 137.195 60.9384 136.165 61.2607C135.222 61.5372 134.153 61.8 132.96 62.0488C131.767 62.27 130.573 62.4773 129.38 62.6709C128.187 62.8368 127.105 62.9897 126.134 63.1279C124.053 63.4321 122.235 63.9155 120.681 64.5791C119.127 65.2427 117.92 66.1417 117.06 67.2754C116.199 68.3814 115.77 69.7638 115.77 71.4229C115.77 73.8285 116.643 75.6675 118.392 76.9395C120.168 78.1837 122.415 78.8057 125.135 78.8057C127.743 78.8056 130.046 78.2945 132.044 77.2715C134.042 76.2208 135.61 74.8106 136.748 73.041C137.886 71.2713 138.454 69.2661 138.454 67.0264V62.7695ZM45.1973 14.5947C39.6203 14.5947 34.5854 15.9288 30.0928 18.5967C25.6777 21.1861 22.1919 24.835 19.6357 29.543C17.0798 34.1723 15.8018 39.3901 15.8018 45.1963C15.8018 51.0026 17.0797 56.2599 19.6357 60.9678C19.9618 61.5583 20.3043 62.1328 20.6621 62.6914C20.9458 63.1343 21.0611 63.6673 20.9658 64.1846L19.4053 72.6572C19.1264 74.1714 20.5913 75.4198 22.042 74.9043L29.4229 72.2812C29.9805 72.0831 30.5958 72.146 31.1152 72.4297C35.3708 74.7535 40.0646 75.916 45.1973 75.916C50.6968 75.916 55.6929 74.5819 60.1855 71.9141C64.6781 69.2462 68.2027 65.5972 70.7588 60.9678C73.3148 56.2599 74.5928 51.0026 74.5928 45.1963C74.5927 39.39 73.3148 34.1723 70.7588 29.543C68.2027 24.835 64.6781 21.1861 60.1855 18.5967C55.7704 15.9288 50.7743 14.5947 45.1973 14.5947ZM222.937 0C225.573 9.55991e-05 227.821 0.884715 229.68 2.6543C231.567 4.39629 232.51 6.48473 232.51 8.91797C232.51 11.3787 231.566 13.4941 229.68 15.2637C227.821 17.0056 225.573 17.8769 222.937 17.877C220.3 17.877 218.038 17.0056 216.151 15.2637C214.292 13.4941 213.362 11.3787 213.362 8.91797C213.362 6.48467 214.292 4.39632 216.151 2.6543C218.038 0.884685 220.3 0 222.937 0Z" fill="white"/>
<rect y="103" width="64.8148" height="64.8148" rx="10.3704" fill="#C5EFF9"/>
<rect x="2" y="105" width="60.8148" height="60.8148" rx="8.37037" stroke="black" stroke-opacity="0.04" style="mix-blend-mode:color-burn" stroke-width="4"/>
<path d="M41.0875 129.29C40.5096 129.29 40.0126 128.902 39.789 128.37C39.6045 127.93 39.3861 127.524 39.1338 127.152C38.714 126.523 38.2003 125.992 37.5926 125.561C36.996 125.12 36.3111 124.783 35.5377 124.551C34.7754 124.319 33.9302 124.203 33.0022 124.203C31.2677 124.203 29.7431 124.633 28.4283 125.495C27.1247 126.357 26.1083 127.611 25.3791 129.257C24.6499 130.892 24.2853 132.892 24.2853 135.256C24.2853 137.62 24.6444 139.631 25.3625 141.288C26.0806 142.945 27.0971 144.21 28.4118 145.083C29.7265 145.945 31.2787 146.376 33.0685 146.376C34.6925 146.376 36.0791 146.089 37.2281 145.514C38.3881 144.929 39.2719 144.105 39.8796 143.045C40.4817 142.013 40.7908 140.797 40.8069 139.399C40.8076 139.338 40.8617 139.291 40.922 139.3C41.0443 139.318 41.0311 139.498 40.9074 139.498H34.1148C33.784 139.498 33.5159 139.23 33.5159 138.9V135.392C33.5159 134.676 34.0963 134.096 34.8122 134.096H46.4218C47.1377 134.096 47.7181 134.676 47.7181 135.392V138.372C47.7181 141.355 47.0884 143.918 45.8289 146.061C44.5694 148.193 42.8349 149.839 40.6253 150.999C38.4157 152.148 35.8857 152.723 33.0353 152.723C29.8535 152.723 27.0584 152.021 24.6499 150.618C22.2415 149.204 20.3633 147.199 19.0155 144.603C17.6787 141.995 17.0103 138.902 17.0103 135.322C17.0103 132.571 17.408 130.119 18.2034 127.964C19.0099 125.799 20.1368 123.965 21.5841 122.462C23.0314 120.96 24.7162 119.816 26.6386 119.032C28.5609 118.248 30.6435 117.855 32.8862 117.855C34.8085 117.855 36.5983 118.137 38.2555 118.701C39.9127 119.253 41.3821 120.037 42.6637 121.054C43.9563 122.07 45.0114 123.28 45.8289 124.683C46.4034 125.661 46.8334 126.711 47.1187 127.831C47.3129 128.593 46.702 129.29 45.9155 129.29H41.0875Z" fill="#002D3E"/>
<rect x="71.2964" y="103" width="64.8148" height="64.8148" rx="10.3704" fill="#E2DEFF"/>
<rect x="73.2964" y="105" width="60.8148" height="60.8148" rx="8.37037" stroke="black" stroke-opacity="0.04" style="mix-blend-mode:color-burn" stroke-width="4"/>
<path d="M95.34 151.364C95.1663 151.898 94.6687 152.259 94.1073 152.259H89.1782C88.2876 152.259 87.6623 151.382 87.9529 150.54L98.7743 119.193C98.9547 118.67 99.4467 118.32 99.9996 118.32H107.399C107.952 118.32 108.444 118.671 108.624 119.194L119.43 150.54C119.72 151.382 119.095 152.259 118.205 152.259H113.275C112.714 152.259 112.216 151.897 112.042 151.363L103.873 126.202C103.848 126.126 103.778 126.076 103.699 126.076C103.62 126.076 103.55 126.126 103.526 126.202L95.34 151.364ZM94.5682 140.215C94.5682 139.499 95.1486 138.919 95.8645 138.919H111.435C112.151 138.919 112.731 139.499 112.731 140.215V143.224C112.731 143.94 112.151 144.52 111.435 144.52H95.8645C95.1486 144.52 94.5682 143.94 94.5682 143.224V140.215Z" fill="#002D3E"/>
<rect x="142.593" y="103" width="64.8148" height="64.8148" rx="10.3704" fill="#FEECD1"/>
<rect x="144.593" y="105" width="60.8148" height="60.8148" rx="8.37037" stroke="black" stroke-opacity="0.04" style="mix-blend-mode:color-burn" stroke-width="4"/>
<path d="M156.599 119.616C156.599 118.9 157.179 118.32 157.895 118.32H164.579C165.105 118.32 165.579 118.638 165.778 119.124L174.72 140.939C174.765 141.05 174.874 141.123 174.994 141.123C175.114 141.123 175.223 141.05 175.268 140.939L184.21 119.124C184.409 118.638 184.883 118.32 185.409 118.32H192.093C192.809 118.32 193.389 118.9 193.389 119.616V150.963C193.389 151.679 192.809 152.259 192.093 152.259H187.725C187.009 152.259 186.429 151.679 186.429 150.963V130.337C186.429 130.244 186.353 130.169 186.261 130.169C186.192 130.169 186.13 130.211 186.105 130.274L177.69 151.279C177.493 151.771 177.016 152.093 176.487 152.093H173.503C172.972 152.093 172.495 151.77 172.299 151.278L163.883 130.192C163.858 130.128 163.796 130.086 163.727 130.086C163.635 130.086 163.559 130.161 163.559 130.254V150.963C163.559 151.679 162.979 152.259 162.263 152.259H157.895C157.179 152.259 156.599 151.679 156.599 150.963V119.616Z" fill="#002D3E"/>
<rect x="213.889" y="103" width="64.8148" height="64.8148" rx="10.3704" fill="#DCF0D9"/>
<rect x="215.889" y="105" width="60.8148" height="60.8148" rx="8.37037" stroke="black" stroke-opacity="0.04" style="mix-blend-mode:color-burn" stroke-width="4"/>
<path d="M236.255 152.259C235.539 152.259 234.959 151.679 234.959 150.963V119.616C234.959 118.9 235.539 118.32 236.255 118.32H256.532C257.248 118.32 257.828 118.9 257.828 119.616V122.94C257.828 123.656 257.248 124.236 256.532 124.236H243.431C242.715 124.236 242.135 124.816 242.135 125.532V131.027C242.135 131.743 242.715 132.323 243.431 132.323H255.355C256.071 132.323 256.652 132.904 256.652 133.619V136.943C256.652 137.659 256.071 138.239 255.355 138.239H243.431C242.715 138.239 242.135 138.82 242.135 139.536V145.047C242.135 145.763 242.715 146.343 243.431 146.343H256.598C257.314 146.343 257.895 146.923 257.895 147.639V150.963C257.895 151.679 257.314 152.259 256.598 152.259H236.255Z" fill="#002D3E"/>
<rect x="285.185" y="103" width="64.8148" height="64.8148" rx="10.3704" fill="#F1F1C2"/>
<rect x="287.185" y="105" width="60.8148" height="60.8148" rx="8.37037" stroke="black" stroke-opacity="0.04" style="mix-blend-mode:color-burn" stroke-width="4"/>
<path d="M324.838 128.08C324.172 128.08 323.638 127.564 323.419 126.935C323.142 126.135 322.655 125.478 321.957 124.965C320.952 124.225 319.588 123.855 317.864 123.855C316.693 123.855 315.704 124.02 314.898 124.352C314.091 124.672 313.473 125.12 313.042 125.694C312.622 126.269 312.412 126.92 312.412 127.65C312.39 128.257 312.517 128.787 312.793 129.24C313.08 129.693 313.473 130.086 313.97 130.417C314.467 130.737 315.041 131.019 315.693 131.262C316.345 131.494 317.041 131.693 317.781 131.859L320.831 132.588C322.311 132.919 323.67 133.361 324.907 133.914C326.145 134.466 327.216 135.146 328.122 135.952C329.028 136.759 329.73 137.709 330.227 138.802C330.735 139.896 330.995 141.15 331.006 142.564C330.995 144.641 330.464 146.442 329.415 147.967C328.376 149.48 326.874 150.657 324.907 151.497C322.952 152.325 320.593 152.739 317.831 152.739C315.091 152.739 312.705 152.32 310.672 151.48C308.65 150.64 307.07 149.397 305.932 147.751C305.015 146.403 304.453 144.794 304.246 142.926C304.166 142.203 304.758 141.603 305.485 141.603H309.892C310.573 141.603 311.119 142.138 311.293 142.797C311.458 143.423 311.72 143.975 312.081 144.453C312.666 145.205 313.445 145.774 314.417 146.16C315.4 146.536 316.511 146.724 317.748 146.724C318.963 146.724 320.019 146.547 320.913 146.194C321.819 145.84 322.521 145.348 323.018 144.719C323.515 144.089 323.764 143.365 323.764 142.548C323.764 141.785 323.537 141.145 323.084 140.625C322.642 140.106 321.991 139.664 321.129 139.3C320.278 138.935 319.234 138.604 317.997 138.305L314.301 137.377C311.44 136.681 309.18 135.593 307.523 134.113C305.866 132.632 305.043 130.638 305.054 128.13C305.043 126.075 305.59 124.28 306.695 122.744C307.811 121.209 309.341 120.01 311.285 119.148C313.23 118.286 315.439 117.855 317.914 117.855C320.433 117.855 322.631 118.286 324.51 119.148C326.399 120.01 327.868 121.209 328.918 122.744C329.734 123.938 330.243 125.279 330.444 126.767C330.541 127.485 329.948 128.08 329.224 128.08H324.838Z" fill="#002D3E"/>
</svg>
